<?xml version="1.0" encoding="utf-8"?>
<!-- Generator: Adobe Illustrator 24.2.1, SVG Export Plug-In . SVG Version: 6.00 Build 0)  -->
<svg version="1.1" id="Layer_1" xmlns="http://www.w3.org/2000/svg" xmlns:xlink="http://www.w3.org/1999/xlink" x="0px" y="0px"
	 viewBox="0 0 564.1 526.9" style="enable-background:new 0 0 564.1 526.9;" xml:space="preserve">
<style type="text/css">
	.st0{fill:#FFFFFF;}
</style>
<g>
	<g>
		<path class="st0" d="M675.8,714.4c-266.7,0-533.3,0-800,0c0-266.7,0-533.3,0-800c266.7,0,533.3,0,800,0
			C675.8,181,675.8,447.7,675.8,714.4z M123.9,222.2c-0.9,0-1.8-0.1-2.7-0.1c-0.5-2.8-1.4-5.6-1.3-8.4c0.9-22.8,2-45.6,3-68.4
			c0.3-7.1-1.8-9.3-8.8-9.8c-1.8-0.1-3.8-0.5-5.4,0.1c-1.4,0.5-3.5,2.1-3.5,3.3c-0.9,24-1.8,47.9-1.9,71.9c0,6.9,2.1,13.8,3.7,20.6
			c1.2,4.8,3.5,9.4,9.3,9.8c5.6,0.3,8.1-4.1,10.3-8.2c1.8-3.4,3.2-7,4.5-10.6c1.6-4.5,3-9,4.5-13.5c1,1.7,1.1,3.5,1.5,5.2
			c1.4,6.7,2.6,13.4,4.4,19.9c1.1,3.8,3.8,7.6,8,7c3.1-0.5,6.3-3.2,8.6-5.6c1.9-2.1,2.9-5.2,4-8c2.4-6.4,4.5-12.9,6.9-19.9
			c1.4,7.7,2.5,14.9,4.2,21.9c0.8,3.1,2.3,6.4,4.4,8.7c1.7,1.8,5,3,7.4,2.7c1.6-0.2,3.6-3.3,4.1-5.4c1.1-4.7,0.8-9.7,2.1-14.2
			c5.7-19.8,11.8-39.5,17.9-59.2c0.5-1.7,1.4-3.3,2.2-5c0.7,1.7,0.6,3,0.5,4.3c-1.3,14.3-3.3,28.5-3.8,42.8
			c-0.3,8.8,1.3,17.9,3.1,26.6c1.3,6.5,6.3,10.1,13,10.6c6.4,0.5,9-4.2,11.2-9c2.4-5.2,4.3-10.6,6.7-16.6c0.5,2.5,0.6,4.4,1.2,6
			c1.9,5.1,3.3,10.6,6.3,15c5,7.1,12.2,6.1,15.9-1.7c2-4.2,3.5-8.6,4.7-13.1c2.7-10.4,5.1-20.9,7.6-31.3c0.9,6.1,1,12.2,1.4,18.2
			c0.9,13,2.2,25.9,7.7,38c7.3,16,23.1,17.9,32.6,3.2c14.3-22.1,20.2-47,19.8-73.1c-0.2-11.3-9.1-18-20.1-17.1
			c0.9,4.6,2.8,9.4,2.6,14c-0.8,15.4-1.7,30.9-4,46.2c-1.4,9.1-5.3,17.8-8.5,26.5c-0.6,1.7-3.7,3.9-5.2,3.6
			c-2.2-0.4-4.9-2.6-5.7-4.6c-1.4-3.6-1.9-7.7-2.2-11.7c-2.3-29.2,0.9-58.2,3.7-87.3c1.1-11.3-1.3-14.1-12.7-13.6
			c-1.5,0.1-2.9,0.3-4.4,0.4c-0.5,2.8-1,5.3-1.4,7.8c-4.9-1.6-9.1-3.3-13.4-4.3c-8.7-2.1-13.2-0.5-16.6,7.7
			c-3.5,8.5-6.6,17.5-7.9,26.6c-2.2,15.7-5.2,31.2-11.1,45.9c-0.9,2.2-3.1,3.9-4.7,5.8c-0.8-2.4-2.4-4.8-2.2-7
			c1.3-20.6,3-41.2,4.2-61.8c0.2-4.2-0.2-8.8-1.9-12.6c-3.1-7.1-12-8-16.8-2c-2.4,2.9-4.6,6.3-5.8,9.8c-5.8,16.5-11.2,33-16.8,49.6
			c-0.4,1.3-0.9,2.5-1.3,3.8c-0.3-8.3,0.1-16.5,0.7-24.6c0.8-11.6,1.9-23.2,2.6-34.9c0.3-5.2-2.9-7.3-10.1-7.4
			c-7.5-0.2-7.6-0.2-7.9,6.4c-1.3,25.4-6.7,50.1-14,74.4c-0.7,2.2-1.7,4.3-2.6,6.5c-0.6-0.1-1.2-0.2-1.9-0.3
			c-0.3-2.6-1.1-5.2-0.9-7.8c1.2-21.9,2.5-43.9,4-65.8c0.8-10.9-1.3-13.4-12.3-13.3c-1.6,0-3.2,0.2-5.3,0.4
			C136.9,165.5,134.7,194.7,123.9,222.2z M440.1,17.5c-38.7,5.8-82.8,42.3-83.2,99.6c-0.3,52.8,39.2,95.9,93.3,101.9
			c42.1,4.6,94.6-27.3,102-62.1c-39.1,35.9-95.6,30.7-127.8-4.6c-15.3-16.8-23.4-36.7-23.4-59.5C400.8,61.3,414.5,36.6,440.1,17.5z
			 M261.4,394.1c1.1-5.2,2.4-10,3.1-14.9c0.4-2.7,0.5-6.1-0.8-8.1c-5.1-7.2-20.1-8.8-26.7-2.8c-7.4,6.7-12,15-12.4,25.3
			c-0.1,2.3-0.1,4.7-0.8,6.9c-3.6,11.2-7.1,22.5-11.3,33.5c-1.5,4.1-4.2,8-7.1,11.3c-3.7,4.3-7.9,3.4-9.2-2.1
			c-1.4-5.8-1.8-11.8-2.3-17.8c-0.1-1.1,1.5-2.5,2.5-3.6c3.8-4.1,9-7.5,11.2-12.2c3.7-8.2,6.8-17.2,7.9-26.1
			c1.7-15.1,4.7-12-11-17.4c-11.5-4-15.8-1.8-20.7,9.5c-0.7,1.7-1.4,3.4-2,5.1c-5.5,16.9-7.3,34.3-5,51.8c1,7.6,3,15.6,6.9,22
			c9.3,15.2,21.5,14.7,28.9-1.5c6.3-13.8,10.4-28.7,15.4-43.1c0.7-1.9,1-3.9,1.7-6.5c4.1,9.1,7.9,17.3,11.4,25.5
			c0.5,1.2-0.2,3.4-1.1,4.5c-2.8,3.7-6.3,6.9-9,10.6c-3,4-4.1,8.7-2.7,13.7c1.7,5.8,5.6,9.5,11.6,10.3c7.1,1,13.8,0.1,18.4-6.2
			c6.6-9.1,6.4-18.9,2.8-29c-0.5-1.5-0.7-3.8,0.1-4.8c3.1-4.2,6.7-8,10.4-12.3c0.4,7.9,0.4,15.4,1.4,22.7c1,7.3,2.4,14.8,5.1,21.7
			c2.8,7,9.7,7.2,14,0.9c1.9-2.7,3.3-5.8,4.5-8.8c1.8-4.5,3.4-9.1,5.4-15c0.7,4.5,0.8,7.7,1.9,10.5c1.9,4.9,3.6,10.2,6.8,14.2
			c4.7,5.7,10.5,4.5,13.8-2.1c1.4-2.8,2.5-5.8,3.4-8.8c2.2-7.7,4.3-15.4,6.4-23.1c-1,19.2-3.3,38.2-9.9,56.3
			c-3.7,10.1-8.7,19.6-22.4,16.7c1.3,9.5,6.3,13.6,14.9,11c4.3-1.3,8.9-4.2,11.7-7.7c3.6-4.6,6.1-10.3,8.2-15.8
			c7.4-19.1,10-39.3,11.8-59.6c1.5-17.2,1.8-34.6,2.4-51.9c0.2-7-3.2-11.3-9.3-12.1c-1.8-0.2-3.8,1.1-5.7,1.8c0.1,0.5,0.2,1,0.3,1.5
			c-2.9-0.9-5.7-1.9-8.6-2.6c-8.8-2.3-12.8-0.8-16.6,7.4c-2.7,5.8-4.7,12.1-6.2,18.4c-4.2,16.9-8,34-12,51c-0.5,2-1.5,3.8-2.3,5.7
			c-0.5,0-0.9,0-1.4,0c-0.5-1.8-1.3-3.6-1.3-5.3c0-8,0-16,0.5-24c1-15.5,2.2-30.9,3.5-46.3c0.3-4.2-1.6-6.9-5.6-7.5
			c-3.7-0.5-7.5-0.1-11.2-0.1c-0.8,8.3-2.2,15.9-2,23.5c0.4,14.3-8.8,22.6-17.8,32.2c-2.8-5.6-5.6-10.3-7.5-15.4
			c-2.2-6-4-12.3-4.9-18.6c-0.8-5.5,3.4-10.5,9.4-12c-0.3,3.3-0.6,6.3-1,9.3C250.5,391.2,253.6,394.6,261.4,394.1z M473.4,415
			c2.7-11.8,5.3-23.2,7.9-34.7c0.2-1,0.1-2.5-0.6-3.1c-4.4-4-8.8-8.1-13.5-11.7c-1.1-0.9-3.7-1-5-0.4c-10.8,5.1-20.8,11.6-27.6,21.6
			c-2.8,4.1-4.3,9.3-5.6,14.2c-3.7,13.9-7,28-10.5,42c-0.2,0.9-0.7,1.9-1.4,2.6c-0.9,0.9-2,1.4-3.1,2.1c-0.7-1.1-1.7-2.1-1.9-3.2
			c-0.4-2.6-0.5-5.3-0.3-8c1.4-18.3,2.9-36.5,4.4-54.8c0.8-9-2.1-15.2-8.1-16.9c-5.8-1.6-10.1,0.9-14,9.8
			c-4.3,9.7-7.9,19.7-11.4,29.8c-2.6,7.6-4.5,15.5-6.8,23.3c-0.5-7.5-0.3-14.9,0.2-22.3c0.8-11.1,1.7-22.2,2.6-33.4
			c0.4-4.6-2-7-6.2-7.5c-3.4-0.4-6.9-0.1-10.4-0.1c-2.9,26.3-5.1,52-2.1,77.8c0.8,6.5,3.1,12.9,5.7,18.9c0.9,2.1,5,3.7,7.8,3.8
			c1.4,0.1,3.7-3.5,4.2-5.7c1.1-4.5,0.8-9.3,2.1-13.7c4.8-17.1,9.9-34.2,15-51.2c1-3.3,2.6-6.5,3.9-9.7c0.7,1.4,0.5,2.6,0.4,3.7
			c-1.2,17.6-2.8,35.2-3.3,52.8c-0.2,5.7,1.9,11.8,4,17.3c1.8,4.9,6.5,6.9,11.7,7c4.8,0.1,7.2-3.2,9-6.8c1.9-3.8,3.7-7.8,5-11.9
			c2.8-9.1,5.2-18.4,8-28.2c10.5,12.1,25.8,15,40.1,21.5c-2.7,0.7-4.3,1.1-5.9,1.6c-15.2,4.7-30,10.2-42.5,20.4
			c-9.8,8-12.3,18.7-7.3,28.4c5.7,11.2,19.4,18.4,30.3,14.9c7.8-2.5,15.7-5.8,22.6-10.2c15.6-9.9,27.3-22.7,24.4-43.1
			c15.5-3.8,24.6-1.5,29,6.9c3.8-2.8,4.8-7.5,1.8-11.6c-5.4-7.3-12.2-12.4-21.8-11.9c-4.8,0.2-9.6,1-14.4,1.1
			c-2.5,0.1-5.1-0.4-7.4-1.3c-7.3-3.1-14.5-6.6-21.8-9.7c-4.7-2-9.8-3.4-14.5-5.4c-6.6-2.9-8.2-5.6-6.4-12.6
			c3.3-13.3,13.4-20.3,25.5-27.2c-0.6,3-1.1,4.5-1.1,6.1c-0.3,7.1-1.3,14.2-0.5,21.2C464.3,413.4,468.3,415.4,473.4,415z M72.9,362
			c-0.6,9.1-1.1,17.2-1.5,25.3c-1.2,21-2.5,41.9-3.5,62.9c-0.3,7.3,3.1,10.9,10,11.9c4,0.6,5.9-0.3,6.1-5.1
			c1.8-33.6,4.1-67.2,6-100.8c0.2-3.2,1.3-5,4.3-5.8c9.4-2.6,18.8-5.9,28.3-7.7c9.5-1.8,19.2-2.4,28.7,0.5
			c7.6,2.3,11.1,5.9,10.3,13.7c-1.1,10-1.8,20.5-5.4,29.8C141.8,424.1,116,452,80.6,471c-3.1,1.6-6.4,3.2-9.8,3.7
			c-5.5,0.7-11.2,1-16.7,0.5c-4.3-0.4-7.1-3.7-7.9-8c-0.5-2.8-1.5-5.4-4.5-4.4c-1.3,0.4-1.9,3.9-1.9,6.1c-0.1,1.7,0.9,3.6,1.8,5.1
			c5.8,9.4,14.1,15,25.4,15.2c14.2,0.3,26.2-5.8,37.4-13.6c25.9-18,46-41.3,60.5-69.3c6-11.5,9.4-23.7,10.5-36.7
			c1.9-22-16.9-42.4-39-42.3c-15.6,0.1-30.7,3.1-43.1,8.2c-6.8-3.4-12.1-6.1-18.2-9.1c-0.3,5-0.8,8.4-0.7,11.9
			c0.2,5.2-2,8.2-6.6,10.9c-16.4,9.7-30.5,22-41.1,38c-2.5,3.8-3.9,7.8-1,12c3.6,5.1,7.6,9.5,15.5,10.3c-0.7-4.4-1.6-7.9-1.8-11.5
			c-0.2-2.3-0.2-5.2,1-7C48.8,379.1,60.2,370.6,72.9,362z M174.5,270c0-13.6-5.3-19.1-18.2-19.5c-1.2,0-2.3-0.1-3.5,0
			c-17.3,2.1-34.7,4-52,6.4c-8,1.1-15.8,3-24.2,4.6c0.9-22.7,1.8-44.7,2.7-66.6c1.2-28.5,2.3-56.9,3.3-85.4c0.1-2.3-0.6-5.6-2.2-6.7
			c-4.2-2.8-9.1-4.5-13.8-6.7c-2.1,57.1-4.1,112.9-6.1,169.1c-3.5,0.7-7.5,1.6-11.6,2.2c-4.6,0.7-10,3.4-12-5.9
			c-1.9,14.4,5.8,22.3,17.4,20.1c26.7-4.9,53.2-10.4,80-14.5C147.6,265.1,161.3,263.5,174.5,270z M274.5,340.2
			c0.1,0,0.3,0.1,0.4,0.1c0.2,2.3,0.1,4.7,0.8,6.9c0.4,1.4,1.9,3,3.2,3.4c5.5,1.4,8.4-0.2,9.5-5.7c1.5-8.2,2.3-16.4,3.5-24.7
			c0.7-4.6-2.5-5.4-5.7-5.6c-3.4-0.3-7.5-1-8.3,4C276.6,325.7,275.6,332.9,274.5,340.2z"/>
		<path d="M123.9,222.2c10.8-27.5,13-56.8,15-86.3c2.1-0.2,3.7-0.4,5.3-0.4c10.9-0.1,13,2.4,12.3,13.3c-1.5,21.9-2.8,43.9-4,65.8
			c-0.1,2.6,0.6,5.2,0.9,7.8c0.6,0.1,1.2,0.2,1.9,0.3c0.9-2.2,1.9-4.3,2.6-6.5c7.2-24.3,12.7-49,14-74.4c0.3-6.6,0.5-6.6,7.9-6.4
			c7.2,0.1,10.4,2.2,10.1,7.4c-0.6,11.6-1.7,23.2-2.6,34.9c-0.6,8.1-0.9,16.3-0.7,24.6c0.4-1.3,0.9-2.5,1.3-3.8
			c5.6-16.5,11-33.1,16.8-49.6c1.2-3.5,3.4-6.9,5.8-9.8c4.8-6,13.7-5,16.8,2c1.6,3.8,2.1,8.4,1.9,12.6c-1.2,20.6-3,41.2-4.2,61.8
			c-0.1,2.3,1.5,4.7,2.2,7c1.6-1.9,3.8-3.6,4.7-5.8c5.9-14.8,8.9-30.2,11.1-45.9c1.3-9.1,4.4-18.1,7.9-26.6
			c3.4-8.2,7.9-9.8,16.6-7.7c4.4,1,8.5,2.7,13.4,4.3c0.5-2.5,0.9-5,1.4-7.8c1.5-0.1,3-0.4,4.4-0.4c11.4-0.5,13.8,2.3,12.7,13.6
			c-2.8,29-6,58-3.7,87.3c0.3,3.9,0.8,8,2.2,11.7c0.8,2.1,3.5,4.2,5.7,4.6c1.5,0.3,4.5-1.9,5.2-3.6c3.2-8.7,7.1-17.4,8.5-26.5
			c2.3-15.3,3.2-30.7,4-46.2c0.3-4.6-1.7-9.3-2.6-14c11-0.9,19.9,5.8,20.1,17.1c0.4,26.2-5.5,51-19.8,73.1
			c-9.6,14.8-25.3,12.9-32.6-3.2c-5.5-12.1-6.8-25-7.7-38c-0.4-6.1-0.6-12.2-1.4-18.2c-2.5,10.5-4.9,20.9-7.6,31.3
			c-1.2,4.5-2.7,8.9-4.7,13.1c-3.6,7.8-10.9,8.7-15.9,1.7c-3.1-4.3-4.4-9.9-6.3-15c-0.6-1.7-0.7-3.5-1.2-6c-2.4,6-4.3,11.4-6.7,16.6
			c-2.2,4.7-4.8,9.5-11.2,9c-6.7-0.5-11.7-4.1-13-10.6c-1.7-8.8-3.3-17.8-3.1-26.6c0.4-14.3,2.4-28.5,3.8-42.8
			c0.1-1.3,0.2-2.6-0.5-4.3c-0.7,1.7-1.7,3.3-2.2,5c-6,19.7-12.1,39.4-17.9,59.2c-1.3,4.6-1,9.6-2.1,14.2c-0.5,2.1-2.5,5.2-4.1,5.4
			c-2.4,0.3-5.7-1-7.4-2.7c-2.2-2.3-3.7-5.6-4.4-8.7c-1.7-7-2.8-14.2-4.2-21.9c-2.4,6.9-4.5,13.5-6.9,19.9c-1,2.8-2,5.9-4,8
			c-2.3,2.5-5.5,5.2-8.6,5.6c-4.2,0.6-7-3.2-8-7c-1.8-6.5-3-13.3-4.4-19.9c-0.4-1.7-0.4-3.5-1.5-5.2c-1.5,4.5-2.9,9.1-4.5,13.5
			c-1.3,3.6-2.7,7.2-4.5,10.6c-2.2,4.2-4.7,8.5-10.3,8.2c-5.8-0.3-8.1-5-9.3-9.8c-1.6-6.8-3.7-13.7-3.7-20.6
			c0.1-24,1.1-47.9,1.9-71.9c0-1.2,2.1-2.8,3.5-3.3c1.6-0.6,3.6-0.2,5.4-0.1c7,0.5,9.1,2.7,8.8,9.8c-1,22.8-2.1,45.6-3,68.4
			c-0.1,2.8,0.9,5.6,1.3,8.4C122.1,222.2,123,222.2,123.9,222.2z M258.3,222.6c0.7,0.2,1.5,0.4,2.2,0.6c1.5-3.2,3.6-6.2,4.3-9.5
			c4.2-20.5,8.2-41.1,12-61.6c0.4-1.9,2-4.9-1.7-5.7c-3.4-0.8-6.8-1.2-8.4,3c-1.1,2.8-2.2,5.6-2.9,8.5c-4.3,18.6-6.1,37.4-6,56.5
			C257.8,217.1,258.2,219.8,258.3,222.6z"/>
		<path d="M440.1,17.5c-25.6,19.1-39.2,43.8-39.1,75.3c0.1,22.7,8.1,42.7,23.4,59.5c32.2,35.3,88.8,40.5,127.8,4.6
			c-7.4,34.8-59.8,66.8-102,62.1c-54.1-6-93.7-49-93.3-101.9C357.2,59.8,401.3,23.3,440.1,17.5z"/>
		<path d="M261.4,394.1c-7.8,0.5-10.9-2.9-10.1-10.5c0.3-3,0.6-6,1-9.3c-5.9,1.5-10.2,6.5-9.4,12c0.9,6.3,2.8,12.6,4.9,18.6
			c1.8,5.1,4.7,9.8,7.5,15.4c9-9.6,18.3-17.9,17.8-32.2c-0.2-7.6,1.2-15.3,2-23.5c3.8,0,7.6-0.4,11.2,0.1c4,0.5,5.9,3.2,5.6,7.5
			c-1.2,15.4-2.5,30.9-3.5,46.3c-0.5,8-0.5,16-0.5,24c0,1.8,0.9,3.6,1.3,5.3c0.5,0,0.9,0,1.4,0c0.8-1.9,1.8-3.7,2.3-5.7
			c4-17,7.8-34,12-51c1.5-6.3,3.6-12.5,6.2-18.4c3.8-8.2,7.8-9.6,16.6-7.4c2.9,0.7,5.7,1.8,8.6,2.6c-0.1-0.5-0.2-1-0.3-1.5
			c1.9-0.6,3.9-2,5.7-1.8c6.1,0.8,9.5,5.1,9.3,12.1c-0.6,17.3-1,34.7-2.4,51.9c-1.7,20.2-4.3,40.4-11.8,59.6
			c-2.1,5.5-4.6,11.2-8.2,15.8c-2.8,3.5-7.4,6.4-11.7,7.7c-8.5,2.6-13.6-1.5-14.9-11c13.7,2.8,18.7-6.6,22.4-16.7
			c6.7-18.1,8.9-37.1,9.9-56.3c-2.1,7.7-4.2,15.4-6.4,23.1c-0.9,3-2,6-3.4,8.8c-3.2,6.6-9.1,7.8-13.8,2.1c-3.2-4-4.9-9.3-6.8-14.2
			c-1.1-2.8-1.1-6.1-1.9-10.5c-2.1,5.8-3.6,10.5-5.4,15c-1.3,3.1-2.7,6.2-4.5,8.8c-4.3,6.2-11.3,6.1-14-0.9
			c-2.7-6.9-4.1-14.4-5.1-21.7c-1-7.3-1-14.8-1.4-22.7c-3.7,4.3-7.3,8.1-10.4,12.3c-0.8,1.1-0.6,3.4-0.1,4.8
			c3.6,10.2,3.8,19.9-2.8,29c-4.6,6.3-11.3,7.2-18.4,6.2c-6-0.8-9.9-4.5-11.6-10.3c-1.5-5-0.3-9.7,2.7-13.7c2.8-3.7,6.2-7,9-10.6
			c0.9-1.1,1.6-3.3,1.1-4.5c-3.5-8.3-7.3-16.4-11.4-25.5c-0.7,2.7-1.1,4.6-1.7,6.5c-5,14.4-9.1,29.3-15.4,43.1
			c-7.4,16.2-19.6,16.7-28.9,1.5c-3.9-6.4-5.9-14.5-6.9-22c-2.3-17.5-0.4-34.9,5-51.8c0.6-1.7,1.2-3.4,2-5.1
			c4.9-11.3,9.2-13.5,20.7-9.5c15.7,5.4,12.7,2.3,11,17.4c-1,8.9-4.1,17.9-7.9,26.1c-2.2,4.8-7.4,8.2-11.2,12.2
			c-1,1.1-2.5,2.5-2.5,3.6c0.5,6,0.9,12,2.3,17.8c1.3,5.4,5.5,6.3,9.2,2.1c2.9-3.3,5.6-7.2,7.1-11.3c4.1-11,7.7-22.3,11.3-33.5
			c0.7-2.2,0.7-4.6,0.8-6.9c0.4-10.3,5-18.6,12.4-25.3c6.7-6,21.6-4.4,26.7,2.8c1.4,1.9,1.2,5.4,0.8,8.1
			C263.8,384.1,262.5,388.9,261.4,394.1z M318.3,447.4c0.7,0.2,1.5,0.4,2.2,0.6c1.4-3.2,3.5-6.2,4.2-9.6c4-19.5,7.7-39.1,11.3-58.7
			c0.3-1.6-0.6-4.6-1.7-5c-2.7-1.1-6.1-1.5-7.7,2.1c-1.1,2.4-2.1,4.9-2.7,7.5c-4.3,18.2-6.1,36.7-6,55.4
			C317.8,442.3,318.2,444.9,318.3,447.4z M193.2,408.1c0.6,0.1,1.2,0.2,1.8,0.3c7.3-9.6,10-20.7,10.6-32.5c0-0.9-0.9-2.4-1.7-2.6
			c-1.1-0.2-2.7,0.1-3.5,0.9c-1,1-1.7,2.5-2,4C196.6,388.2,194.9,398.1,193.2,408.1z M247.7,442.3c-0.8-0.4-1.7-0.8-2.5-1.2
			c-1.6,2.4-3.5,4.6-4.8,7.1c-0.4,0.8,0,2.9,0.7,3.4c0.7,0.5,3.1,0.1,3.4-0.5C245.8,448.4,246.7,445.3,247.7,442.3z"/>
		<path d="M473.4,415c-5.1,0.3-9.1-1.6-9.7-7.5c-0.7-7,0.2-14.2,0.5-21.2c0.1-1.6,0.6-3.2,1.1-6.1c-12.1,7-22.2,14-25.5,27.2
			c-1.7,7-0.1,9.8,6.4,12.6c4.7,2.1,9.7,3.4,14.5,5.4c7.3,3.1,14.5,6.6,21.8,9.7c2.3,0.9,4.9,1.4,7.4,1.3c4.8-0.1,9.6-0.9,14.4-1.1
			c9.6-0.5,16.4,4.6,21.8,11.9c3,4.1,2,8.8-1.8,11.6c-4.4-8.4-13.5-10.7-29-6.9c2.9,20.5-8.8,33.2-24.4,43.1
			c-6.9,4.4-14.8,7.7-22.6,10.2c-10.9,3.5-24.5-3.8-30.3-14.9c-5-9.8-2.5-20.4,7.3-28.4c12.5-10.2,27.3-15.7,42.5-20.4
			c1.6-0.5,3.2-0.9,5.9-1.6c-14.4-6.4-29.6-9.4-40.1-21.5c-2.7,9.8-5.2,19.1-8,28.2c-1.3,4.1-3,8.1-5,11.9c-1.8,3.6-4.2,6.9-9,6.8
			c-5.2-0.1-9.9-2.2-11.7-7c-2.1-5.5-4.2-11.6-4-17.3c0.5-17.6,2.1-35.2,3.3-52.8c0.1-1.1,0.3-2.3-0.4-3.7c-1.3,3.2-2.9,6.4-3.9,9.7
			c-5.1,17-10.2,34.1-15,51.2c-1.2,4.4-0.9,9.3-2.1,13.7c-0.6,2.3-2.9,5.8-4.2,5.7c-2.7-0.1-6.8-1.7-7.8-3.8c-2.7-6-5-12.4-5.7-18.9
			c-3.1-25.8-0.8-51.5,2.1-77.8c3.6,0,7.1-0.3,10.4,0.1c4.2,0.5,6.6,2.9,6.2,7.5c-0.9,11.1-1.8,22.2-2.6,33.4
			c-0.5,7.4-0.8,14.8-0.2,22.3c2.2-7.8,4.2-15.6,6.8-23.3c3.5-10,7.1-20.1,11.4-29.8c3.9-8.9,8.3-11.4,14-9.8
			c6,1.7,8.9,7.9,8.1,16.9c-1.6,18.2-3,36.5-4.4,54.8c-0.2,2.6-0.1,5.3,0.3,8c0.2,1.1,1.2,2.2,1.9,3.2c1-0.7,2.2-1.2,3.1-2.1
			c0.7-0.7,1.2-1.7,1.4-2.6c3.5-14,6.8-28,10.5-42c1.3-4.9,2.8-10.1,5.6-14.2c6.8-10,16.8-16.5,27.6-21.6c1.4-0.6,3.9-0.5,5,0.4
			c4.7,3.7,9.1,7.7,13.5,11.7c0.6,0.6,0.8,2.1,0.6,3.1C478.8,391.8,476.1,403.3,473.4,415z M484,454.2c-1.5,0.2-2.7,0.2-3.7,0.6
			c-12,4.7-24.2,9.2-36,14.5c-4.7,2.1-9,5.7-12.9,9.2c-3.6,3.1-6.7,7.5-4.1,12.3c2.5,4.7,7.7,4,12.1,3c20.7-5,34.4-18.4,44-36.8
			C483.7,456.3,483.7,455.5,484,454.2z"/>
		<path d="M72.9,362c-12.7,8.6-24.1,17.1-32.3,29.1c-1.2,1.8-1.2,4.7-1,7c0.2,3.5,1.1,7.1,1.8,11.5c-7.9-0.8-11.9-5.2-15.5-10.3
			c-3-4.2-1.6-8.2,1-12c10.6-16,24.7-28.4,41.1-38c4.6-2.7,6.8-5.7,6.6-10.9c-0.1-3.4,0.4-6.9,0.7-11.9c6.1,3.1,11.4,5.7,18.2,9.1
			c12.4-5.1,27.5-8.1,43.1-8.2c22.1-0.1,40.9,20.3,39,42.3c-1.1,13-4.6,25.2-10.5,36.7c-14.5,28-34.6,51.3-60.5,69.3
			c-11.2,7.8-23.2,13.9-37.4,13.6c-11.3-0.2-19.5-5.9-25.4-15.2c-0.9-1.5-1.9-3.4-1.8-5.1c0.1-2.1,0.7-5.7,1.9-6.1
			c3-1.1,3.9,1.6,4.5,4.4c0.8,4.3,3.6,7.6,7.9,8c5.5,0.5,11.2,0.2,16.7-0.5c3.4-0.4,6.7-2,9.8-3.7c35.4-19,61.1-46.9,75.7-84.4
			c3.6-9.3,4.3-19.7,5.4-29.8c0.8-7.7-2.7-11.4-10.3-13.7c-9.5-2.8-19.3-2.3-28.7-0.5c-9.6,1.8-18.9,5.1-28.3,7.7
			c-3,0.8-4.1,2.6-4.3,5.8c-2,33.6-4.2,67.2-6,100.8c-0.3,4.7-2.1,5.6-6.1,5.1c-6.8-1-10.3-4.6-10-11.9c1-21,2.3-41.9,3.5-62.9
			C71.8,379.2,72.3,371.1,72.9,362z"/>
		<path d="M174.5,270c-13.2-6.5-27-4.9-40.1-2.9c-26.8,4.1-53.4,9.6-80,14.5c-11.6,2.1-19.3-5.7-17.4-20.1c2,9.3,7.3,6.6,12,5.9
			c4.1-0.6,8.1-1.5,11.6-2.2c2-56.2,4.1-111.9,6.1-169.1c4.7,2.2,9.6,4,13.8,6.7c1.5,1,2.3,4.4,2.2,6.7c-1,28.5-2.2,56.9-3.3,85.4
			c-0.9,22-1.8,43.9-2.7,66.6c8.4-1.6,16.3-3.5,24.2-4.6c17.3-2.4,34.7-4.3,52-6.4c1.1-0.1,2.3-0.1,3.5,0
			C169.3,250.9,174.5,256.4,174.5,270z"/>
		<path d="M274.5,340.2c1.1-7.2,2.1-14.5,3.3-21.6c0.9-5,4.9-4.2,8.3-4c3.3,0.2,6.4,1.1,5.7,5.6c-1.2,8.2-2,16.5-3.5,24.7
			c-1,5.5-3.9,7.1-9.5,5.7c-1.3-0.3-2.8-2-3.2-3.4c-0.7-2.2-0.6-4.6-0.8-6.9C274.8,340.2,274.7,340.2,274.5,340.2z"/>
		<path class="st0" d="M258.3,222.6c-0.2-2.8-0.5-5.5-0.5-8.3c-0.1-19,1.7-37.9,6-56.5c0.7-2.9,1.8-5.7,2.9-8.5c1.6-4.1,5-3.7,8.4-3
			c3.7,0.8,2.1,3.8,1.7,5.7c-3.9,20.6-7.8,41.1-12,61.6c-0.7,3.3-2.8,6.3-4.3,9.5C259.8,223,259.1,222.8,258.3,222.6z"/>
		<path class="st0" d="M318.3,447.4c-0.2-2.6-0.5-5.2-0.5-7.7c-0.1-18.7,1.7-37.2,6-55.4c0.6-2.6,1.6-5,2.7-7.5
			c1.6-3.6,5-3.2,7.7-2.1c1.1,0.4,2,3.4,1.7,5c-3.6,19.6-7.3,39.2-11.3,58.7c-0.7,3.3-2.8,6.4-4.2,9.6
			C319.8,447.8,319.1,447.6,318.3,447.4z"/>
		<path class="st0" d="M193.2,408.1c1.7-9.9,3.4-19.9,5.3-29.8c0.3-1.4,1-3,2-4c0.8-0.8,2.4-1.1,3.5-0.9c0.7,0.2,1.7,1.7,1.7,2.6
			c-0.6,11.8-3.3,22.9-10.6,32.5C194.4,408.3,193.8,408.2,193.2,408.1z"/>
		<path class="st0" d="M247.7,442.3c-1,3-1.9,6-3.2,8.9c-0.3,0.6-2.7,1-3.4,0.5c-0.7-0.5-1.1-2.6-0.7-3.4c1.3-2.5,3.2-4.8,4.8-7.1
			C246,441.6,246.9,442,247.7,442.3z"/>
		<path class="st0" d="M484,454.2c-0.3,1.2-0.3,2.1-0.6,2.7c-9.6,18.4-23.3,31.8-44,36.8c-4.4,1.1-9.6,1.7-12.1-3
			c-2.6-4.8,0.5-9.2,4.1-12.3c4-3.5,8.2-7.1,12.9-9.2c11.8-5.3,23.9-9.7,36-14.5C481.2,454.5,482.4,454.5,484,454.2z"/>
	</g>
</g>
</svg>
