<?xml version="1.0" encoding="utf-8"?>
<!-- Generator: Adobe Illustrator 24.2.1, SVG Export Plug-In . SVG Version: 6.00 Build 0)  -->
<svg version="1.1" xmlns="http://www.w3.org/2000/svg" xmlns:xlink="http://www.w3.org/1999/xlink" x="0px" y="0px"
	 viewBox="0 0 343 280" style="enable-background:new 0 0 343 280;" xml:space="preserve">
<g id="Layer_1">
	
		<image style="overflow:visible;" width="720" height="720" xlink:href="m.png"  transform="matrix(0.3842 0 0 0.3842 45.4152 3.397)">
	</image>
	<g>
		<path d="M58.9,161.1c3.3,0,5.4,0.8,6.4,2.3c1,1.6,1.4,3.5,1.4,5.8c-1.6-1.3-4.3-2-8.3-2c-0.6,0-2.3,0.1-5.1,0.2
			c-2.8,0.1-7.2,0.7-13.1,1.8c-5.9,1.1-11.3,2.1-16,3.2c-4.9,1.1-7.9,1.6-8.9,1.6c-1,0-1.9-0.4-2.6-1.2c-0.7-0.8-1.2-1.7-1.6-2.8
			c-0.4-1.1-0.6-2-0.7-2.8v-0.5c0-0.5,0.1-0.7,0.2-0.7c0.2,0,0.3,0.1,0.4,0.2c0.1,0.2,0.2,0.4,0.2,0.6c0.1,0.3,0.2,0.7,0.4,1
			c0.2,0.3,0.5,0.5,1,0.5c1.3,0,4.1-0.5,8.3-1.4c-0.4-0.5-0.5-1.3-0.5-2.3c0-2.1,0.2-7.4,0.6-16c0.3-7.7,0.7-16.3,1-25.6
			c0.4-9.3,0.5-17.4,0.5-24.3l1,0.2c0.7,0.2,1.5,0.4,2.4,0.7c0.9,0.3,1.7,0.8,2.4,1.3c0.7,0.5,1,1.2,1,2c0,0.7-0.1,3.8-0.3,9.4
			c-0.2,5.5-0.5,11.9-0.8,19.2c-0.3,7.2-0.6,14.1-0.8,20.4c-0.3,6.4-0.4,10.9-0.6,13.7c4.9-1.1,10.2-2.1,16-3.1
			C48.7,161.6,54,161.1,58.9,161.1z"/>
		<path d="M64.6,127.8h2.6l-0.7,4.5c-0.5,3-1.2,6.4-2.1,10.3c-0.9,3.8-2,7.3-3.3,10.3c-1.3,3-2.7,4.5-4.3,4.5
			c-1.9,0-3.2-1.4-4.1-4.3c-0.9-2.9-1.4-6.4-1.6-10.5c-1,4-2.1,7.5-3.4,10.4c-1.3,2.9-2.8,4.4-4.4,4.4c-1.9,0-3.3-1.5-4.2-4.4
			c-0.9-2.9-1.4-6.5-1.6-10.7c-0.1-2.1-0.1-4.2-0.1-6.3c0-2.1,0.1-4.7,0.2-7.9c0.1-3.2,0.3-6.2,0.6-9.1l0.4-4.4c0.2,0,0.6,0,0.9,0
			c0.4,0,0.8,0,1.3,0c0.4,0,1,0,1.7,0.1s1.4,0.3,2.1,0.7c0.7,0.4,1.1,1.1,1.1,2.2c0,0.9-0.1,2.8-0.4,5.9c-0.3,3.3-0.5,7-0.7,11
			c-0.2,2.8-0.2,5.4-0.2,7.7c0,1,0,2.6,0.1,4.6c0.1,2,0.5,3,1.3,3c0.6,0,1.5-2.1,2.5-6.2c1-4.1,2-8.9,2.9-14.4
			c0.2-4.1,0.5-7.5,0.7-10.3l0.4-4.2h0.9c0.4,0,0.8,0,1.2,0c0.4,0,1,0,1.7,0.1c0.7,0,1.4,0.3,2.1,0.7c0.7,0.4,1.1,1.1,1.1,2.2
			c0,0.9-0.2,3.1-0.5,6.7c-0.3,3.4-0.6,7-0.9,11c-0.2,3.6-0.4,6.8-0.4,9.6c0,0.3,0,1.2,0,2.8c0,1.6,0.4,2.4,1.1,2.4
			c0.3,0,0.8-1.2,1.4-3.5c0.7-2.4,1.4-5.2,2.2-8.6C63.3,134.4,64,131.1,64.6,127.8z"/>
		<path d="M95.1,127.8h2.6l-0.7,4.5c-0.5,3-1.2,6.4-2.1,10.3c-0.9,3.8-2,7.3-3.3,10.3c-1.3,3-2.7,4.5-4.3,4.5
			c-3.3,0-5.4-1.7-6.3-5.2c-0.7-2.6-1-5.6-1-8.9c0-1.1,0.1-3.2,0.3-6.2c0.2-3,0.6-6.7,1.2-11.1c0.2-1.5,0.4-2.9,0.5-4.1
			c-0.8,1.5-1.8,4-3,7.5s-2.3,7.2-3.4,11.1c-1.1,3.9-1.9,7.1-2.5,9.6c0,0.3,0,0.7,0,1c0,1.3-0.2,2.6-0.6,4.1
			c-0.4,1.4-1.1,2.1-2.1,2.1c-2,0-3.5-1.5-4.3-4.4c-0.9-2.9-1.4-6.5-1.6-10.7c-0.1-1.8-0.1-3.7-0.1-5.6c0-2.4,0.1-5.2,0.3-8.5
			c0.2-3.3,0.4-6.4,0.8-9.3l0.5-4.4h0.9c0.5,0,1.1,0,1.7,0c0.3,0,0.8,0,1.4,0c0.6,0,1.3,0.2,2,0.7c0.7,0.4,1.1,1.2,1.1,2.2
			c0,1.1-0.2,3.3-0.5,6.6c-0.3,2.9-0.5,6.1-0.8,9.6c-0.2,3.1-0.3,6-0.3,8.7v0.9c0.9-3.7,2-7.8,3.4-12.2c1.3-4.4,2.8-8.3,4.4-11.6
			c1.6-3.3,3.2-5,4.7-5c1.8,0,3.1,0.6,3.9,1.7c0.8,1.2,1.2,2.5,1.2,4.1v0c0,1-0.2,3.2-0.6,6.6c-0.3,3.1-0.6,6.4-0.9,9.9
			c-0.3,3.2-0.4,6.1-0.4,8.5c0,0.2,0,1,0,2.5c0,1.4,0.4,2.1,1.2,2.1c0.6,0,1.4-1.2,2.2-3.5s1.7-5.2,2.5-8.6
			C93.7,134.4,94.4,131.1,95.1,127.8z"/>
		<path d="M121.4,127.8h2.6l-0.7,4.5c-0.5,3-1.2,6.5-2.1,10.3c-0.9,3.8-2,7.3-3.3,10.3c-1.3,3-2.7,4.5-4.3,4.5
			c-2.1,0-3.5-1.8-4.4-5.4c-0.8-3.6-1.3-7.9-1.3-12.8c-1,4.9-2,9.1-3.2,12.7c-1.2,3.6-2.4,5.5-3.7,5.5c-4.8,0-7.2-5.9-7.2-17.7v-1
			c0-6.5,0.8-12.1,2.4-16.9c1.6-4.8,3.5-7.2,5.7-7.2c1.1,0,2.3,0.2,3.6,0.6c1.3,0.4,2.5,0.8,3.5,1.2l0.3-3c0.3,0,0.6,0,0.9,0
			c0.4,0,0.8,0,1.3,0c0.4,0,1,0,1.7,0.1c0.7,0,1.4,0.3,2.1,0.7c0.7,0.4,1.1,1.1,1.1,2.2c0,0.9-0.2,3.2-0.5,6.8
			c-0.3,3.5-0.6,7.3-0.9,11.4c-0.3,3.8-0.4,7.1-0.4,10c0,0.3,0,1.3,0,2.9c0,1.7,0.4,2.5,1.1,2.5c0.3,0,0.8-1.2,1.4-3.5
			c0.7-2.4,1.4-5.2,2.2-8.6C120,134.5,120.7,131.1,121.4,127.8z M101,150c0.8,0,1.6-1.4,2.5-4.3s1.7-6.3,2.4-10.1
			c0.7-3.8,1.3-7.4,1.8-10.6c0.5-3.2,0.7-5.2,0.7-5.9l-0.7-0.2c-0.5-0.2-1.2-0.2-2.1-0.2c-1,0-2,1.6-2.7,4.8
			c-0.8,3.2-1.4,6.8-1.8,10.9c-0.4,4.1-0.7,7.7-0.7,10.9v0.5C100.4,148.6,100.6,150,101,150z"/>
		<path d="M189.9,98.6c3.3,0,6.7,1.6,10.4,4.7c3.6,3.1,5.4,6.9,5.4,11.2c0,7.6-2.6,15.4-7.9,23.6c-5.3,8.2-11.5,15.1-18.7,20.8
			c-7.2,5.7-13.6,8.5-19.3,8.5c-3.2,0-6.1-1.1-8.5-3.2s-3.6-4.4-3.6-6.6c0-0.7,0.2-1.1,0.7-1.3c0.2-0.1,0.4-0.1,0.6-0.1
			c0.3,0,0.6,0.1,1,0.3c0.4,0.2,0.6,0.7,0.6,1.3c0,1,0.5,1.9,1.5,2.8c1,0.9,2.7,1.4,5.2,1.4c3.1,0,7.1-1.4,11.8-4.3
			c4.8-2.9,9.5-6.7,14.2-11.6c4.7-4.8,8.6-10.3,11.8-16.5c3.2-6.1,4.8-12.5,4.8-19c0-2.6-1.3-4.4-3.7-5.2c-1.9-0.6-4.1-0.9-6.6-0.9
			c-0.8,0-2.3,0.1-4.5,0.2c-2.2,0.2-4.9,0.7-8.2,1.5c-3.3,0.9-5.8,1.7-7.5,2.5c-0.2,3.6-0.5,8-0.8,13.2c-0.3,5.2-0.6,10.4-1,15.5
			c-0.3,5.1-0.6,9.5-0.8,13l-0.3,5.3l-0.7,0.1c-0.2,0-0.5,0-0.8,0c-0.3,0-0.7,0-1.2-0.1s-1.1-0.2-1.7-0.5s-1.2-0.8-1.7-1.4
			s-0.7-1.6-0.7-2.8c0-1.9,0.2-6.9,0.7-14.8c0.5-8,1-15.7,1.4-23.3c-4.4,3-8,5.8-10.6,8.6c-2.6,2.8-3.9,4.6-3.9,5.6
			c0,0.4,0.1,1.1,0.4,2.1c0.2,0.6,0.3,1.3,0.4,1.9c0.1,0.4,0.1,0.8,0.1,1.2c0,0.2,0,0.4-0.1,0.7c-0.1,0.3-0.3,0.4-0.7,0.4
			c-0.8,0-1.7-0.4-2.7-1.1c-1-0.7-1.9-1.6-2.7-2.6c-0.8-1-1.1-2-1.1-2.9c0-1.5,1.9-4.4,5.6-8.6c3.7-4.3,9-8.4,15.6-12.3
			c0.3-4.4,0.5-6.9,0.5-7.3l1,0.2c0.6,0.2,1.4,0.4,2.2,0.7c0.8,0.3,1.6,0.7,2.3,1.2c0.7,0.5,1.1,1.1,1.3,1.8
			C175.7,99.9,182.5,98.6,189.9,98.6z"/>
		<path d="M226.6,127.8h2.6l-1,4.5c-0.7,3-1.6,6.5-2.8,10.3s-2.7,7.3-4.4,10.3c-1.7,3-3.5,4.5-5.6,4.5c-2.2,0-4.4-1.5-6.5-4.5
			c-2.1-3-3.2-7.7-3.2-14.2c0-6.5,0.8-12.1,2.4-16.9c1.6-4.8,3.5-7.2,5.7-7.2c1.2,0,2.5,0.2,4,0.7s2.6,0.9,3.7,1.3l1.5,0.7
			c0,4.8-0.8,9.3-2.5,13.8s-4.1,7.2-7.3,8.3c0,3,0.3,5.5,0.7,7.6c0.5,2,1.2,3.1,2.2,3.1c1.8,0,3.7-2.4,5.8-7.2
			C224,137.9,225.6,132.9,226.6,127.8z M216.9,118.1c-0.9,0-1.6,1.6-2.2,4.7c-0.6,3.2-1.1,6.8-1.3,10.9c1.5-1.5,2.7-3.6,3.6-6.4
			c1-2.8,1.4-5.6,1.4-8.3v0c0-0.1,0-0.1,0-0.2c0-0.1,0-0.1-0.1-0.2c-0.1-0.1-0.1-0.2-0.2-0.2c-0.1-0.1-0.3-0.1-0.4-0.2
			S217.2,118.1,216.9,118.1z"/>
		<path d="M249.7,127.8L249,130c-0.4,1.5-1.3,3.3-2.5,5.5c-1.2,2.2-3,4.4-5.3,6.6c1.1,2.4,1.7,4.7,1.7,7c0,2.3-0.7,4.4-2,6.4
			c-1.3,2-3.4,3-6.3,3c-2,0-3.4-0.4-4.4-1.1s-1.7-1.6-2-2.6c-0.4-1-0.5-1.7-0.5-2.3c0-1.6,0.7-3.3,2-5c1.3-1.7,2.8-3.2,4.3-4.5
			c-0.4-0.9-0.9-1.9-1.4-2.8c-1.5-3-2.8-6.1-4-9.3l-0.2,0c-0.2,0-0.4-0.1-0.6-0.2s-0.4-0.3-0.7-0.6c-0.2-0.3-0.4-0.7-0.6-1.2
			c-0.2-0.5-0.2-1.1-0.2-1.9c0-2.4,1-5.1,2.9-8c1.9-2.9,4.1-4.3,6.6-4.3c1.1,0,2.2,0.2,3.3,0.7c1.1,0.4,2,0.9,2.8,1.3l1.1,0.7
			c0.4,0.4,0.5,1,0.5,1.8c0,0.2,0,0.6-0.1,1.2c-0.1,0.6-0.3,1.6-0.6,2.8c-0.4,1.6-0.7,3-0.7,4.2l-0.5,0.1c-0.2,0-0.4,0-0.7,0
			c-0.1,0-0.4,0-0.6,0c-0.3,0-0.7-0.2-1.1-0.4c-0.5-0.2-0.8-0.6-1.1-1.1c-0.3-0.5-0.5-1.2-0.5-2.1v-0.2c0-0.9,0.2-2,0.5-3.3
			c0-1-0.2-1.4-0.7-1.4c-0.1,0-0.4,0.1-0.8,0.3c-0.4,0.2-1,0.8-1.7,1.8c-0.7,1-1.1,1.9-1.1,2.8c0,2.1,0.5,4.3,1.4,6.4
			c0.9,2.2,2,4.3,3.2,6.5c0.3,0.6,0.6,1.1,0.9,1.7c3.3-2.9,5.9-6.3,7.7-10.3H249.7z M232.8,150.7c0,0.7,0.3,1,0.8,1.1h0.1
			c0.5,0,1-0.2,1.5-0.7s0.8-1.1,0.8-2c0-0.6-0.2-1.4-0.5-2.3c-0.7,0.6-1.4,1.3-1.9,2C233.1,149.5,232.8,150.1,232.8,150.7z"/>
		<path d="M260.1,127.8h2.6l-0.7,4.5c-0.5,3-1.2,6.4-2.1,10.3s-2,7.3-3.3,10.3s-2.7,4.5-4.3,4.5c-1.9,0-3.3-1.5-4.1-4.4
			c-0.9-2.9-1.4-6.5-1.5-10.7c-0.1-1.9-0.1-3.9-0.1-5.8c0-2.3,0.1-5,0.2-8.3c0.2-3.2,0.4-6.3,0.7-9.2l0.4-4.4h0.9
			c0.5-0.1,1-0.1,1.5-0.1c0.4,0,0.9,0,1.5,0.1c0.7,0,1.4,0.3,2.1,0.7c0.7,0.4,1.1,1.1,1.1,2.2c0,0.9-0.2,3.2-0.5,6.7
			c-0.3,3.4-0.6,7-0.9,11c-0.3,3.7-0.4,6.9-0.4,9.6c0,0.2,0,1.2,0,2.8c0,1.6,0.4,2.4,1.1,2.4c0.2,0,0.7-1.2,1.4-3.5s1.4-5.2,2.2-8.6
			C258.8,134.4,259.5,131.1,260.1,127.8z M252.2,108.6c-0.5,0.2-1,0.3-1.6,0.3h-0.3c-0.5,0-1-0.1-1.4-0.2c-0.5-0.1-0.7-0.3-0.8-0.6
			c-0.2-1.3-0.2-2.6-0.2-3.9c0-0.8,0.1-1.8,0.2-3.2c0.1-1.4,0.3-2.7,0.6-4.1l0.4-2c0-0.8,0.5-1.2,1.5-1.4c0.4-0.1,0.8-0.1,1.2-0.1
			c0.6,0,1.3,0.1,2.1,0.3c0.8,0.2,1.2,0.6,1.2,1.2c0,0.6-0.1,2-0.3,4.2c-0.2,2.2-0.5,4.2-0.9,6.2
			C253.3,107.2,252.8,108.3,252.2,108.6z"/>
		<path d="M273.9,114.5l0.6,0c0.4,0,0.9,0,1.5,0.1c0.6,0.1,1.2,0.3,1.8,0.7c0.6,0.4,1.1,0.9,1.5,1.6c0.4,0.7,0.6,1.7,0.6,2.9
			c0,2.3-0.1,6.6-0.4,12.8c-0.3,6.2-0.9,12.7-2,19.6c-1,6.9-2.6,12.8-4.8,17.8s-5.2,7.5-9,7.5c-1.5,0-2.6-0.4-3.3-1.1
			c-0.7-0.7-1.1-1.5-1.3-2.3c-0.2-0.8-0.3-1.4-0.3-1.8c0.9,0.3,1.6,0.4,2.4,0.4c3.5,0,6.2-3.4,8.2-10.1c1.9-6.7,3.2-14.9,3.7-24.4
			c-1,5.1-2.1,9.5-3.3,13.3s-2.5,5.7-3.8,5.7c-4.8,0-7.2-5.9-7.2-17.7v-1c0-6.5,0.8-12.1,2.4-16.9c1.6-4.8,3.5-7.2,5.7-7.2
			c1.1,0,2.2,0.2,3.5,0.6c1.3,0.4,2.4,0.8,3.4,1.2V114.5z M266.3,149.9c0.8,0,1.7-1.4,2.5-4.3c0.9-2.9,1.7-6.2,2.4-10.1
			s1.3-7.4,1.8-10.6s0.7-5.2,0.7-5.9l-0.7-0.2c-0.5-0.2-1.2-0.2-2.1-0.2c-1.1,0-2,1.6-2.8,4.8c-0.8,3.2-1.4,6.8-1.8,10.9
			c-0.4,4.1-0.7,7.7-0.7,10.9v0.5C265.7,148.5,265.9,149.9,266.3,149.9z"/>
		<path d="M314,127.8h2.6l-0.7,4.5c-0.5,3-1.2,6.4-2.1,10.3s-2,7.3-3.3,10.3c-1.3,3-2.7,4.5-4.3,4.5c-3.3,0-5.4-1.7-6.3-5.2
			c-0.7-2.6-1-5.6-1-8.9c0-1.1,0.1-3.2,0.3-6.2c0.2-3,0.6-6.7,1.2-11.1c0.2-1.5,0.4-2.9,0.5-4.1c-0.8,1.5-1.8,4-3,7.5
			s-2.3,7.2-3.4,11.1c-1.1,3.9-1.9,7.1-2.5,9.6c0,0.3,0,0.7,0,1c0,1.3-0.2,2.6-0.6,4.1c-0.4,1.4-1.1,2.1-2.1,2.1
			c-2,0-3.5-1.5-4.3-4.4c-0.9-2.9-1.4-6.5-1.6-10.7c-0.1-1.8-0.1-3.7-0.1-5.6c0-2.4,0.1-5.2,0.3-8.5c0.2-3.3,0.4-6.4,0.8-9.3
			l0.5-4.4h0.9c0.5,0,1.1,0,1.7,0c0.3,0,0.8,0,1.4,0c0.6,0,1.3,0.2,2,0.7c0.7,0.4,1.1,1.2,1.1,2.2c0,1.1-0.2,3.3-0.5,6.6
			c-0.3,2.9-0.5,6.1-0.8,9.6c-0.2,3.1-0.3,6-0.3,8.7v0.9c0.9-3.7,2-7.8,3.4-12.2c1.3-4.4,2.8-8.3,4.4-11.6c1.6-3.3,3.2-5,4.7-5
			c1.8,0,3.1,0.6,3.9,1.7c0.8,1.2,1.2,2.5,1.2,4.1v0c0,1-0.2,3.2-0.6,6.6c-0.3,3.1-0.6,6.4-0.9,9.9c-0.3,3.2-0.4,6.1-0.4,8.5
			c0,0.2,0,1,0,2.5s0.4,2.1,1.2,2.1c0.6,0,1.4-1.2,2.2-3.5c0.9-2.4,1.7-5.2,2.5-8.6C312.7,134.4,313.4,131.1,314,127.8z"/>
		<path d="M337,127.8l-0.7,2.2c-0.4,1.5-1.3,3.3-2.5,5.5c-1.2,2.2-3,4.4-5.3,6.6c1.1,2.4,1.7,4.7,1.7,7c0,2.3-0.7,4.4-2,6.4
			c-1.3,2-3.4,3-6.3,3c-2,0-3.4-0.4-4.4-1.1s-1.7-1.6-2-2.6c-0.4-1-0.5-1.7-0.5-2.3c0-1.6,0.7-3.3,2-5c1.3-1.7,2.8-3.2,4.3-4.5
			c-0.4-0.9-0.9-1.9-1.4-2.8c-1.5-3-2.8-6.1-4-9.3l-0.2,0c-0.2,0-0.4-0.1-0.6-0.2s-0.4-0.3-0.7-0.6c-0.2-0.3-0.4-0.7-0.6-1.2
			c-0.2-0.5-0.2-1.1-0.2-1.9c0-2.4,1-5.1,2.9-8c1.9-2.9,4.1-4.3,6.6-4.3c1.1,0,2.2,0.2,3.3,0.7c1.1,0.4,2,0.9,2.8,1.3l1.1,0.7
			c0.4,0.4,0.5,1,0.5,1.8c0,0.2,0,0.6-0.1,1.2c-0.1,0.6-0.3,1.6-0.6,2.8c-0.4,1.6-0.7,3-0.7,4.2l-0.5,0.1c-0.2,0-0.4,0-0.7,0
			c-0.1,0-0.4,0-0.6,0c-0.3,0-0.7-0.2-1.1-0.4c-0.5-0.2-0.8-0.6-1.1-1.1c-0.3-0.5-0.5-1.2-0.5-2.1v-0.2c0-0.9,0.2-2,0.5-3.3
			c0-1-0.2-1.4-0.7-1.4c-0.1,0-0.4,0.1-0.8,0.3c-0.4,0.2-1,0.8-1.7,1.8c-0.7,1-1.1,1.9-1.1,2.8c0,2.1,0.5,4.3,1.4,6.4
			c0.9,2.2,2,4.3,3.2,6.5c0.3,0.6,0.6,1.1,0.9,1.7c3.3-2.9,5.9-6.3,7.7-10.3H337z M320.2,150.7c0,0.7,0.3,1,0.8,1.1h0.1
			c0.5,0,1-0.2,1.5-0.7s0.8-1.1,0.8-2c0-0.6-0.2-1.4-0.5-2.3c-0.7,0.6-1.4,1.3-1.9,2C320.4,149.5,320.2,150.1,320.2,150.7z"/>
	</g>
</g>
<g id="Layer_2">
</g>
</svg>
